<svg display="block" role="presentation" viewBox="0 0 100 67" xmlns="http://www.w3.org/2000/svg"><g d="M 0 0 L 100 0 L 100 68.571 L 0 68.571 Z M 19.451 52.459 L 19.451 36.729 L 36.109 36.729 L 37.896 39.057 L 39.743 36.729 L 100.204 36.729 L 100.204 51.376 C 100.204 51.376 98.623 52.444 96.794 52.461 L 63.316 52.461 L 61.301 49.981 L 61.301 52.461 L 54.697 52.461 L 54.697 48.227 C 54.697 48.227 53.796 48.819 51.846 48.819 L 49.599 48.819 L 49.599 52.461 L 39.6 52.461 L 37.814 50.081 L 36.003 52.461 L 19.451 52.461 Z M 0 24.87 L 3.757 16.113 L 10.253 16.113 L 12.384 21.019 L 12.384 16.113 L 20.46 16.113 L 21.729 19.659 L 22.959 16.113 L 59.209 16.113 L 59.209 17.896 C 59.209 17.896 61.114 16.113 64.246 16.113 L 76.009 16.154 L 78.103 20.996 L 78.103 16.113 L 84.86 16.113 L 86.721 18.894 L 86.721 16.113 L 93.54 16.113 L 93.54 31.843 L 86.721 31.843 L 84.939 29.053 L 84.939 31.843 L 75.01 31.843 L 74.01 29.363 L 71.343 29.363 L 70.361 31.843 L 63.627 31.843 C 60.933 31.843 59.21 30.097 59.21 30.097 L 59.21 31.843 L 49.057 31.843 L 47.043 29.363 L 47.043 31.843 L 9.289 31.843 L 8.291 29.363 L 5.631 29.363 L 4.641 31.843 L 0 31.843 L 0 24.871 Z" fill="transparent" height="68.57142857142857px" id="kBbB071dQ" transform="translate(0 0.215)" width="100.45285395966052px"><path d="M 0 0 L 100 0 L 100 68.571 L 0 68.571 Z" fill="rgb(1, 111, 208)" height="68.57142857142857px" id="aOqSUGb23" width="100px"/><path d="M 19.451 36.346 L 19.451 20.616 L 36.109 20.616 L 37.896 22.944 L 39.743 20.616 L 100.204 20.616 L 100.204 35.263 C 100.204 35.263 98.623 36.331 96.794 36.349 L 63.316 36.349 L 61.301 33.869 L 61.301 36.349 L 54.697 36.349 L 54.697 32.114 C 54.697 32.114 53.796 32.706 51.846 32.706 L 49.599 32.706 L 49.599 36.349 L 39.6 36.349 L 37.814 33.969 L 36.003 36.349 L 19.451 36.349 Z M 0 8.757 L 3.757 0 L 10.253 0 L 12.384 4.906 L 12.384 0 L 20.46 0 L 21.729 3.546 L 22.959 0 L 59.209 0 L 59.209 1.783 C 59.209 1.783 61.114 0 64.246 0 L 76.009 0.041 L 78.103 4.883 L 78.103 0 L 84.86 0 L 86.721 2.781 L 86.721 0 L 93.54 0 L 93.54 15.73 L 86.721 15.73 L 84.939 12.94 L 84.939 15.73 L 75.01 15.73 L 74.01 13.25 L 71.343 13.25 L 70.361 15.73 L 63.627 15.73 C 60.933 15.73 59.21 13.984 59.21 13.984 L 59.21 15.73 L 49.057 15.73 L 47.043 13.25 L 47.043 15.73 L 9.289 15.73 L 8.291 13.25 L 5.631 13.25 L 4.641 15.73 L 0 15.73 L 0 8.759 Z" fill="rgb(255, 255, 255)" height="36.34857216971261px" id="BPmhRmedF" transform="translate(0 16.113)" width="100.20428650992264px"/><path d="M 5.066 0.003 L 0 11.783 L 3.297 11.783 L 4.231 9.424 L 9.669 9.424 L 10.599 11.781 L 13.97 11.781 L 8.909 0.003 Z M 6.94 2.744 L 8.597 6.866 L 5.279 6.866 Z" fill="rgb(1, 111, 208)" height="11.78px" id="amex1" transform="translate(0.017 18.049)" width="13.97px"/></g></svg>