<svg display="block" role="presentation" viewBox="0 0 100 69" xmlns="http://www.w3.org/2000/svg"><path d="M 0 0 L 100 0 L 100 68.571 L 0 68.571 Z" fill="rgb(0, 0, 0)" height="68.571px" id="omZ6h76ut" transform="translate(0 0.215)" width="100px"/><path d="M 38.993 19.723 C 38.993 30.616 30.264 39.446 19.496 39.446 C 8.729 39.446 0 30.616 0 19.723 C 0 8.83 8.729 0 19.496 0 C 30.264 0 38.993 8.83 38.993 19.723 Z" fill="rgb(237, 0, 6)" height="39.445714285714274px" id="g6i41OYsV" transform="translate(18.421 15.141)" width="38.99285714285725px"/><path d="M 38.993 19.723 C 38.993 30.616 30.264 39.446 19.496 39.446 C 8.729 39.446 0 30.616 0 19.723 C 0 8.83 8.729 0 19.496 0 C 30.264 0 38.993 8.83 38.993 19.723 Z" fill="rgb(0, 153, 223)" height="39.445714285714274px" id="IC4oE06ry" transform="translate(43.714 15.141)" width="38.99285714285723px"/><path d="M 6.85 0 C 11.212 3.766 13.713 9.248 13.7 15.011 C 13.7 21.023 11.043 26.406 6.85 30.023 C 2.488 26.256 -0.013 20.774 0 15.011 C 0 9 2.657 3.617 6.85 0 Z" fill="rgb(108, 107, 189)" height="30.02285714285714px" id="o444etXo8" transform="translate(43.714 19.852)" width="13.700106773315937px"/></svg>