<svg display="block" role="presentation" viewBox="0 0 100 67" xmlns="http://www.w3.org/2000/svg"><g d="M 0 0 L 100 0 L 100 69 L 0 69 Z M 50.714 49.326 C 47.204 52.387 42.714 54.071 38.069 54.067 C 27.3 54.067 18.571 45.181 18.571 34.221 C 18.571 23.26 27.3 14.375 38.069 14.375 C 42.894 14.375 47.31 16.16 50.714 19.116 C 54.225 16.055 58.715 14.372 63.36 14.375 C 74.129 14.375 82.857 23.26 82.857 34.221 C 82.857 45.182 74.129 54.067 63.36 54.067 C 58.715 54.07 54.225 52.387 50.714 49.326 Z M 50.714 49.326 C 55.076 45.536 57.578 40.02 57.564 34.221 C 57.578 28.422 55.076 22.906 50.714 19.116 C 54.225 16.055 58.715 14.372 63.36 14.375 C 74.129 14.375 82.857 23.26 82.857 34.221 C 82.857 45.182 74.129 54.067 63.36 54.067 C 58.715 54.07 54.225 52.387 50.714 49.326 Z M 50.421 19.406 C 54.783 23.196 57.285 28.713 57.271 34.512 C 57.271 40.561 54.614 45.977 50.421 49.617 C 46.06 45.827 43.558 40.31 43.571 34.511 C 43.571 28.462 46.229 23.046 50.421 19.406 Z" fill="transparent" height="69px" id="hwdnWciwU" width="100px"><path d="M 0 0 L 100 0 L 100 69 L 0 69 Z" fill="rgb(0, 0, 0)" height="69px" id="TamoUySRQ" width="100px"/><path d="M 32.143 34.951 C 28.632 38.012 24.142 39.696 19.497 39.692 C 8.729 39.692 0 30.806 0 19.846 C 0 8.885 8.729 0 19.497 0 C 24.323 0 28.739 1.785 32.143 4.741 C 35.653 1.68 40.144 -0.003 44.789 0 C 55.557 0 64.286 8.885 64.286 19.846 C 64.286 30.807 55.557 39.692 44.789 39.692 C 40.144 39.695 35.653 38.012 32.143 34.951 Z" fill="rgb(237, 0, 6)" height="39.69226047732169px" id="KeXoFqQGf" transform="translate(18.571 14.375)" width="64.28571428571422px"/><path d="M 0 34.951 C 4.362 31.161 6.863 25.645 6.85 19.846 C 6.864 14.047 4.362 8.531 0 4.741 C 3.51 1.68 8.001 -0.003 12.646 0 C 23.414 0 32.143 8.885 32.143 19.846 C 32.143 30.807 23.414 39.692 12.646 39.692 C 8.001 39.695 3.511 38.012 0 34.951 Z" fill="rgb(249, 160, 0)" height="39.692259361631514px" id="f1WkkwwJ2" transform="translate(50.714 14.375)" width="32.14285714285688px"/><path d="M 6.85 0 C 11.212 3.79 13.713 9.306 13.7 15.105 C 13.7 21.154 11.043 26.571 6.85 30.21 C 2.488 26.42 -0.013 20.904 0 15.105 C 0 9.056 2.657 3.64 6.85 0 Z" fill="rgb(255, 94, 0)" height="30.210499999999993px" id="Jhim1wMz5" transform="translate(43.571 19.406)" width="13.700106773316076px"/></g></svg>