<svg display="block" role="presentation" viewBox="0 0 100 69" xmlns="http://www.w3.org/2000/svg"><path d="M 0 0 L 100 0 L 100 68.571 L 0 68.571 Z" fill="rgb(0, 87, 159)" height="68.57142857142857px" id="FDj9uYgdf" transform="translate(0 0.215)" width="100px"/><path d="M 24.337 22.264 L 18.683 22.264 L 22.22 0.396 L 27.874 0.396 Z M 44.833 0.932 C 43.215 0.308 41.495 -0.008 39.761 0 C 34.177 0 30.246 2.977 30.221 7.234 C 30.174 10.376 33.036 12.12 35.177 13.167 C 37.363 14.239 38.107 14.936 38.107 15.89 C 38.086 17.354 36.34 18.03 34.711 18.03 C 32.454 18.03 31.246 17.682 29.407 16.867 L 28.663 16.517 L 27.871 21.426 C 29.197 22.03 31.64 22.566 34.177 22.59 C 40.11 22.59 43.973 19.659 44.019 15.122 C 44.041 12.633 42.53 10.726 39.273 9.166 C 37.294 8.166 36.083 7.492 36.083 6.467 C 36.107 5.537 37.109 4.583 39.34 4.583 C 40.789 4.541 42.229 4.828 43.551 5.422 L 44.063 5.653 Z M 52.35 14.517 C 52.816 13.26 54.607 8.399 54.607 8.399 C 54.584 8.446 55.073 7.119 55.351 6.304 L 55.747 8.19 C 55.747 8.19 56.819 13.423 57.05 14.517 Z M 59.33 0.396 L 54.954 0.396 C 53.606 0.396 52.581 0.792 52 2.21 L 43.6 22.263 L 49.534 22.263 L 50.72 18.983 L 57.983 18.983 C 58.146 19.752 58.657 22.263 58.657 22.263 L 63.893 22.263 L 59.331 0.396 Z M 13.96 0.396 L 8.423 15.307 L 7.817 12.284 C 6.794 8.794 3.583 5.003 0 3.117 L 5.071 22.24 L 11.051 22.24 L 19.939 0.397 L 13.96 0.397 Z" fill="rgb(255, 255, 255)" height="22.590137097168906px" id="jZKPIL9X0" transform="translate(18.446 23.902)" width="63.89285561697814px"/><path d="M 9.193 0 L 0.094 0 L 0 0.443 C 7.097 2.257 11.797 6.631 13.729 11.889 L 11.751 1.839 C 11.426 0.443 10.426 0.047 9.193 0 Z" fill="rgb(250, 166, 26)" height="11.888571428571428px" id="fAtQ07Vzl" transform="translate(12.534 24.298)" width="13.728571428571284px"/></svg>