<svg display="block" role="presentation" viewBox="0 0 100 69" xmlns="http://www.w3.org/2000/svg"><path d="M 0 0 L 100 0 L 100 68.571 L 0 68.571 Z" fill="rgb(255, 255, 255)" height="68.57142857142857px" id="yHGYmap3Y" transform="translate(0 0.215)" width="100px"/><path d="M 2.143 41.429 C 0.959 41.429 0 40.469 0 39.286 L 0 2.143 C 0 0.959 0.959 0 2.143 0 L 36.429 0 C 37.612 0 38.571 0.959 38.571 2.143 L 38.571 39.286 C 38.571 40.469 37.612 41.429 36.429 41.429 Z" fill="transparent" height="41.42857142857143px" id="sr6rmXYf6" stroke-dasharray="" stroke-linecap="butt" stroke-linejoin="miter" stroke-miterlimit="10" stroke-width="1.43" stroke="rgb(0, 35, 160)" transform="translate(30.714 13.786)" width="38.57142857142857px"/><path d="M 2.714 0 C 1.219 0 0 1.191 0 2.656 L 0 40.2 C 0 41.666 1.219 42.856 2.714 42.856 L 37.286 42.856 C 38.783 42.856 40 41.666 40 40.2 L 39.823 40.2 C 39.823 41.57 38.686 42.686 37.284 42.686 L 2.714 42.686 C 1.317 42.686 0.179 41.57 0.179 40.2 L 0.179 2.657 C 0.179 1.289 1.317 0.171 2.714 0.171 L 37.286 0.171 C 38.686 0.171 39.823 1.289 39.823 2.657 L 39.823 40.2 L 40 40.2 L 40 2.657 C 40 1.191 38.783 0 37.286 0 Z" fill="rgb(0, 35, 160)" height="42.855714285714285px" id="e434tlQTk" transform="translate(30 13.072)" width="40px"/><path d="M 40 0 L 40 11.906 C 40 13.22 38.82 14.286 37.363 14.286 L 2.634 14.286 C 1.179 14.286 0 13.22 0 11.906 L 0 0 Z" fill="rgb(0, 35, 160)" height="14.285714285714285px" id="JkX4Z6SXP" transform="translate(30 41.644)" width="40px"/><path d="M 16.797 5.15 L 16.797 8.486 L 15.597 8.486 L 15.597 5.15 L 12.483 0.244 L 13.683 0 L 16.209 4.104 L 18.673 0.087 L 20 0.087 Z M 9.166 1.413 L 7.76 4.956 L 10.581 4.956 Z M 12.023 8.571 L 10.989 5.967 L 7.354 5.967 L 6.357 8.486 L 5.143 8.486 L 8.59 0.05 L 9.79 0.05 L 13.186 8.329 Z M 2.271 1.099 L 1.2 1.099 L 1.2 4.066 L 2.194 4.066 C 3.397 4.066 4.11 3.591 4.11 2.546 C 4.11 1.584 3.473 1.099 2.271 1.099 Z M 2.131 5.079 L 1.2 5.079 L 1.2 8.486 L 0 8.486 L 0 0.086 L 2.337 0.086 C 4.2 0.086 5.323 0.95 5.323 2.507 C 5.323 4.226 4.047 5.079 2.131 5.079 Z" fill="rgb(255, 255, 255)" height="8.57142857217363px" id="UYASvTXhH" transform="translate(40 44.501)" width="19.999999607631054px"/><path d="M 12.893 0 L 7.646 13.66 L 7.139 10.886 C 5.834 7.486 3.3 4.1 0 2.654 L 4.459 20 L 10.134 19.996 L 18.571 0 Z" fill="rgb(0, 35, 160)" height="20px" id="bKiNVXB7y" transform="translate(41.429 17.358)" width="18.57142857142857px"/><path d="M 7.693 0 L 0.086 0 L 0 0.621 C 6.093 2.579 9.756 7.176 11.429 12.857 L 9.894 1.994 C 9.601 0.499 8.751 0.051 7.694 0 Z" fill="rgb(255, 160, 0)" height="12.857142857142858px" id="cuQvF0TBJ" transform="translate(38.571 17.358)" width="11.42857142857143px"/></svg>